<mxfile host="app.diagrams.net" modified="2024-03-13T18:10:55.233Z" agent="Mozilla/5.0 (Windows NT 10.0; Win64; x64) AppleWebKit/537.36 (KHTML, like Gecko) Chrome/122.0.0.0 Safari/537.36 Edg/122.0.0.0" etag="C0zf2Ba7blf8oe39vPt7" version="24.0.5" type="github">
  <diagram id="C5RBs43oDa-KdzZeNtuy" name="Page-1">
    <mxGraphModel dx="1042" dy="543" grid="1" gridSize="10" guides="1" tooltips="1" connect="1" arrows="1" fold="1" page="1" pageScale="1" pageWidth="827" pageHeight="1169" math="0" shadow="0">
      <root>
        <mxCell id="WIyWlLk6GJQsqaUBKTNV-0" />
        <mxCell id="WIyWlLk6GJQsqaUBKTNV-1" parent="WIyWlLk6GJQsqaUBKTNV-0" />
        <mxCell id="WIyWlLk6GJQsqaUBKTNV-2" value="" style="rounded=0;html=1;jettySize=auto;orthogonalLoop=1;fontSize=11;endArrow=block;endFill=0;endSize=8;strokeWidth=1;shadow=0;labelBackgroundColor=none;edgeStyle=orthogonalEdgeStyle;" parent="WIyWlLk6GJQsqaUBKTNV-1" source="WIyWlLk6GJQsqaUBKTNV-3" edge="1">
          <mxGeometry relative="1" as="geometry">
            <mxPoint x="220" y="170" as="targetPoint" />
          </mxGeometry>
        </mxCell>
        <mxCell id="WIyWlLk6GJQsqaUBKTNV-3" value="Inicio" style="rounded=1;whiteSpace=wrap;html=1;fontSize=12;glass=0;strokeWidth=1;shadow=0;" parent="WIyWlLk6GJQsqaUBKTNV-1" vertex="1">
          <mxGeometry x="160" y="80" width="120" height="40" as="geometry" />
        </mxCell>
        <mxCell id="WIyWlLk6GJQsqaUBKTNV-8" value="No" style="rounded=0;html=1;jettySize=auto;orthogonalLoop=1;fontSize=11;endArrow=block;endFill=0;endSize=8;strokeWidth=1;shadow=0;labelBackgroundColor=none;edgeStyle=orthogonalEdgeStyle;" parent="WIyWlLk6GJQsqaUBKTNV-1" edge="1">
          <mxGeometry x="0.3333" y="20" relative="1" as="geometry">
            <mxPoint as="offset" />
            <mxPoint x="220" y="370" as="sourcePoint" />
          </mxGeometry>
        </mxCell>
        <mxCell id="WIyWlLk6GJQsqaUBKTNV-9" value="Yes" style="edgeStyle=orthogonalEdgeStyle;rounded=0;html=1;jettySize=auto;orthogonalLoop=1;fontSize=11;endArrow=block;endFill=0;endSize=8;strokeWidth=1;shadow=0;labelBackgroundColor=none;" parent="WIyWlLk6GJQsqaUBKTNV-1" edge="1">
          <mxGeometry y="10" relative="1" as="geometry">
            <mxPoint as="offset" />
            <mxPoint x="270" y="330" as="sourcePoint" />
          </mxGeometry>
        </mxCell>
        <mxCell id="_SHLjoK1nUgN4xCROU10-25" style="edgeStyle=orthogonalEdgeStyle;rounded=0;orthogonalLoop=1;jettySize=auto;html=1;" edge="1" parent="WIyWlLk6GJQsqaUBKTNV-1" source="yIEQVCiZEY7P1PTBp4xF-0" target="yIEQVCiZEY7P1PTBp4xF-3">
          <mxGeometry relative="1" as="geometry" />
        </mxCell>
        <mxCell id="yIEQVCiZEY7P1PTBp4xF-0" value="nombre: &quot;nombre_adaptador&quot;" style="shape=parallelogram;perimeter=parallelogramPerimeter;whiteSpace=wrap;html=1;fixedSize=1;" parent="WIyWlLk6GJQsqaUBKTNV-1" vertex="1">
          <mxGeometry x="160" y="260" width="140" height="60" as="geometry" />
        </mxCell>
        <mxCell id="yIEQVCiZEY7P1PTBp4xF-2" value="Petición de nombre de interfaz de red" style="rounded=0;whiteSpace=wrap;html=1;" parent="WIyWlLk6GJQsqaUBKTNV-1" vertex="1">
          <mxGeometry x="160" y="170" width="120" height="60" as="geometry" />
        </mxCell>
        <mxCell id="_SHLjoK1nUgN4xCROU10-6" style="edgeStyle=orthogonalEdgeStyle;rounded=0;orthogonalLoop=1;jettySize=auto;html=1;" edge="1" parent="WIyWlLk6GJQsqaUBKTNV-1" source="yIEQVCiZEY7P1PTBp4xF-3" target="yIEQVCiZEY7P1PTBp4xF-4">
          <mxGeometry relative="1" as="geometry" />
        </mxCell>
        <mxCell id="yIEQVCiZEY7P1PTBp4xF-3" value="Petición de numero de paquetes a analizar" style="rounded=0;whiteSpace=wrap;html=1;" parent="WIyWlLk6GJQsqaUBKTNV-1" vertex="1">
          <mxGeometry x="170" y="370" width="120" height="60" as="geometry" />
        </mxCell>
        <mxCell id="_SHLjoK1nUgN4xCROU10-26" style="edgeStyle=orthogonalEdgeStyle;rounded=0;orthogonalLoop=1;jettySize=auto;html=1;" edge="1" parent="WIyWlLk6GJQsqaUBKTNV-1" source="yIEQVCiZEY7P1PTBp4xF-4" target="_SHLjoK1nUgN4xCROU10-11">
          <mxGeometry relative="1" as="geometry" />
        </mxCell>
        <mxCell id="yIEQVCiZEY7P1PTBp4xF-4" value="n: &quot;num_paquetes&quot;" style="shape=parallelogram;perimeter=parallelogramPerimeter;whiteSpace=wrap;html=1;fixedSize=1;" parent="WIyWlLk6GJQsqaUBKTNV-1" vertex="1">
          <mxGeometry x="165" y="470" width="130" height="60" as="geometry" />
        </mxCell>
        <mxCell id="_SHLjoK1nUgN4xCROU10-4" style="edgeStyle=orthogonalEdgeStyle;rounded=0;orthogonalLoop=1;jettySize=auto;html=1;entryX=0.443;entryY=0.007;entryDx=0;entryDy=0;entryPerimeter=0;" edge="1" parent="WIyWlLk6GJQsqaUBKTNV-1" source="yIEQVCiZEY7P1PTBp4xF-2" target="yIEQVCiZEY7P1PTBp4xF-0">
          <mxGeometry relative="1" as="geometry" />
        </mxCell>
        <mxCell id="_SHLjoK1nUgN4xCROU10-27" style="edgeStyle=orthogonalEdgeStyle;rounded=0;orthogonalLoop=1;jettySize=auto;html=1;" edge="1" parent="WIyWlLk6GJQsqaUBKTNV-1" source="_SHLjoK1nUgN4xCROU10-11" target="_SHLjoK1nUgN4xCROU10-12">
          <mxGeometry relative="1" as="geometry" />
        </mxCell>
        <mxCell id="_SHLjoK1nUgN4xCROU10-11" value="Creación del socket" style="rounded=0;whiteSpace=wrap;html=1;" vertex="1" parent="WIyWlLk6GJQsqaUBKTNV-1">
          <mxGeometry x="170" y="570" width="120" height="60" as="geometry" />
        </mxCell>
        <mxCell id="_SHLjoK1nUgN4xCROU10-28" style="edgeStyle=orthogonalEdgeStyle;rounded=0;orthogonalLoop=1;jettySize=auto;html=1;entryX=0;entryY=0.5;entryDx=0;entryDy=0;" edge="1" parent="WIyWlLk6GJQsqaUBKTNV-1" source="_SHLjoK1nUgN4xCROU10-12" target="_SHLjoK1nUgN4xCROU10-13">
          <mxGeometry relative="1" as="geometry" />
        </mxCell>
        <mxCell id="_SHLjoK1nUgN4xCROU10-29" style="edgeStyle=orthogonalEdgeStyle;rounded=0;orthogonalLoop=1;jettySize=auto;html=1;entryX=0.5;entryY=0;entryDx=0;entryDy=0;" edge="1" parent="WIyWlLk6GJQsqaUBKTNV-1" source="_SHLjoK1nUgN4xCROU10-12" target="_SHLjoK1nUgN4xCROU10-14">
          <mxGeometry relative="1" as="geometry" />
        </mxCell>
        <mxCell id="_SHLjoK1nUgN4xCROU10-12" value="Se crea correctamente" style="rhombus;whiteSpace=wrap;html=1;" vertex="1" parent="WIyWlLk6GJQsqaUBKTNV-1">
          <mxGeometry x="170" y="660" width="120" height="90" as="geometry" />
        </mxCell>
        <mxCell id="_SHLjoK1nUgN4xCROU10-13" value="Fin" style="rounded=1;whiteSpace=wrap;html=1;" vertex="1" parent="WIyWlLk6GJQsqaUBKTNV-1">
          <mxGeometry x="370" y="675" width="120" height="60" as="geometry" />
        </mxCell>
        <mxCell id="_SHLjoK1nUgN4xCROU10-30" style="edgeStyle=orthogonalEdgeStyle;rounded=0;orthogonalLoop=1;jettySize=auto;html=1;entryX=0.5;entryY=0;entryDx=0;entryDy=0;" edge="1" parent="WIyWlLk6GJQsqaUBKTNV-1" source="_SHLjoK1nUgN4xCROU10-14" target="_SHLjoK1nUgN4xCROU10-15">
          <mxGeometry relative="1" as="geometry" />
        </mxCell>
        <mxCell id="_SHLjoK1nUgN4xCROU10-14" value="Se asigna el modo promiscuo con los datos" style="rounded=0;whiteSpace=wrap;html=1;" vertex="1" parent="WIyWlLk6GJQsqaUBKTNV-1">
          <mxGeometry x="170" y="810" width="120" height="60" as="geometry" />
        </mxCell>
        <mxCell id="_SHLjoK1nUgN4xCROU10-31" style="edgeStyle=orthogonalEdgeStyle;rounded=0;orthogonalLoop=1;jettySize=auto;html=1;" edge="1" parent="WIyWlLk6GJQsqaUBKTNV-1" source="_SHLjoK1nUgN4xCROU10-15" target="_SHLjoK1nUgN4xCROU10-16">
          <mxGeometry relative="1" as="geometry" />
        </mxCell>
        <mxCell id="_SHLjoK1nUgN4xCROU10-32" style="edgeStyle=orthogonalEdgeStyle;rounded=0;orthogonalLoop=1;jettySize=auto;html=1;" edge="1" parent="WIyWlLk6GJQsqaUBKTNV-1" source="_SHLjoK1nUgN4xCROU10-15" target="_SHLjoK1nUgN4xCROU10-17">
          <mxGeometry relative="1" as="geometry" />
        </mxCell>
        <mxCell id="_SHLjoK1nUgN4xCROU10-15" value="Se logra poner el modo promiscuo?" style="rhombus;whiteSpace=wrap;html=1;" vertex="1" parent="WIyWlLk6GJQsqaUBKTNV-1">
          <mxGeometry x="170" y="925" width="120" height="90" as="geometry" />
        </mxCell>
        <mxCell id="_SHLjoK1nUgN4xCROU10-16" value="Fin" style="rounded=1;whiteSpace=wrap;html=1;" vertex="1" parent="WIyWlLk6GJQsqaUBKTNV-1">
          <mxGeometry x="360" y="940" width="120" height="60" as="geometry" />
        </mxCell>
        <mxCell id="_SHLjoK1nUgN4xCROU10-33" style="edgeStyle=orthogonalEdgeStyle;rounded=0;orthogonalLoop=1;jettySize=auto;html=1;entryX=0.5;entryY=0;entryDx=0;entryDy=0;" edge="1" parent="WIyWlLk6GJQsqaUBKTNV-1" source="_SHLjoK1nUgN4xCROU10-17" target="_SHLjoK1nUgN4xCROU10-18">
          <mxGeometry relative="1" as="geometry" />
        </mxCell>
        <mxCell id="_SHLjoK1nUgN4xCROU10-17" value="lectura de trama con estructura ethhdr e iphdr" style="rounded=0;whiteSpace=wrap;html=1;" vertex="1" parent="WIyWlLk6GJQsqaUBKTNV-1">
          <mxGeometry x="170" y="1060" width="120" height="60" as="geometry" />
        </mxCell>
        <mxCell id="_SHLjoK1nUgN4xCROU10-34" style="edgeStyle=orthogonalEdgeStyle;rounded=0;orthogonalLoop=1;jettySize=auto;html=1;entryX=0.5;entryY=0;entryDx=0;entryDy=0;" edge="1" parent="WIyWlLk6GJQsqaUBKTNV-1" source="_SHLjoK1nUgN4xCROU10-18" target="_SHLjoK1nUgN4xCROU10-20">
          <mxGeometry relative="1" as="geometry" />
        </mxCell>
        <mxCell id="_SHLjoK1nUgN4xCROU10-18" value="Analisis de trama con las estructuras" style="rounded=0;whiteSpace=wrap;html=1;" vertex="1" parent="WIyWlLk6GJQsqaUBKTNV-1">
          <mxGeometry x="170" y="1160" width="120" height="60" as="geometry" />
        </mxCell>
        <mxCell id="_SHLjoK1nUgN4xCROU10-37" style="edgeStyle=orthogonalEdgeStyle;rounded=0;orthogonalLoop=1;jettySize=auto;html=1;entryX=0.5;entryY=0;entryDx=0;entryDy=0;" edge="1" parent="WIyWlLk6GJQsqaUBKTNV-1" source="_SHLjoK1nUgN4xCROU10-19" target="_SHLjoK1nUgN4xCROU10-22">
          <mxGeometry relative="1" as="geometry" />
        </mxCell>
        <mxCell id="_SHLjoK1nUgN4xCROU10-19" value="contador++" style="rounded=0;whiteSpace=wrap;html=1;" vertex="1" parent="WIyWlLk6GJQsqaUBKTNV-1">
          <mxGeometry x="170" y="1470" width="120" height="60" as="geometry" />
        </mxCell>
        <mxCell id="_SHLjoK1nUgN4xCROU10-35" style="edgeStyle=orthogonalEdgeStyle;rounded=0;orthogonalLoop=1;jettySize=auto;html=1;entryX=0.5;entryY=0;entryDx=0;entryDy=0;" edge="1" parent="WIyWlLk6GJQsqaUBKTNV-1" source="_SHLjoK1nUgN4xCROU10-20" target="_SHLjoK1nUgN4xCROU10-21">
          <mxGeometry relative="1" as="geometry" />
        </mxCell>
        <mxCell id="_SHLjoK1nUgN4xCROU10-20" value="Creacion de archivo &quot;ouput.txt&quot;" style="rounded=0;whiteSpace=wrap;html=1;" vertex="1" parent="WIyWlLk6GJQsqaUBKTNV-1">
          <mxGeometry x="170" y="1260" width="120" height="60" as="geometry" />
        </mxCell>
        <mxCell id="_SHLjoK1nUgN4xCROU10-36" style="edgeStyle=orthogonalEdgeStyle;rounded=0;orthogonalLoop=1;jettySize=auto;html=1;entryX=0.5;entryY=0;entryDx=0;entryDy=0;" edge="1" parent="WIyWlLk6GJQsqaUBKTNV-1" source="_SHLjoK1nUgN4xCROU10-21" target="_SHLjoK1nUgN4xCROU10-19">
          <mxGeometry relative="1" as="geometry" />
        </mxCell>
        <mxCell id="_SHLjoK1nUgN4xCROU10-21" value="Escritura de parámetros en documento" style="shape=document;whiteSpace=wrap;html=1;boundedLbl=1;" vertex="1" parent="WIyWlLk6GJQsqaUBKTNV-1">
          <mxGeometry x="170" y="1360" width="120" height="80" as="geometry" />
        </mxCell>
        <mxCell id="_SHLjoK1nUgN4xCROU10-24" style="edgeStyle=orthogonalEdgeStyle;rounded=0;orthogonalLoop=1;jettySize=auto;html=1;entryX=1;entryY=0.5;entryDx=0;entryDy=0;" edge="1" parent="WIyWlLk6GJQsqaUBKTNV-1" source="_SHLjoK1nUgN4xCROU10-22" target="_SHLjoK1nUgN4xCROU10-17">
          <mxGeometry relative="1" as="geometry">
            <mxPoint x="450" y="1086.7999267578125" as="targetPoint" />
            <Array as="points">
              <mxPoint x="390" y="1610" />
              <mxPoint x="390" y="1090" />
            </Array>
          </mxGeometry>
        </mxCell>
        <mxCell id="_SHLjoK1nUgN4xCROU10-38" style="edgeStyle=orthogonalEdgeStyle;rounded=0;orthogonalLoop=1;jettySize=auto;html=1;entryX=0.5;entryY=0;entryDx=0;entryDy=0;" edge="1" parent="WIyWlLk6GJQsqaUBKTNV-1" source="_SHLjoK1nUgN4xCROU10-22" target="_SHLjoK1nUgN4xCROU10-23">
          <mxGeometry relative="1" as="geometry" />
        </mxCell>
        <mxCell id="_SHLjoK1nUgN4xCROU10-22" value="contador &amp;lt; n" style="rhombus;whiteSpace=wrap;html=1;" vertex="1" parent="WIyWlLk6GJQsqaUBKTNV-1">
          <mxGeometry x="190" y="1580" width="80" height="80" as="geometry" />
        </mxCell>
        <mxCell id="_SHLjoK1nUgN4xCROU10-23" value="Fin" style="rounded=1;whiteSpace=wrap;html=1;" vertex="1" parent="WIyWlLk6GJQsqaUBKTNV-1">
          <mxGeometry x="170" y="1720" width="120" height="60" as="geometry" />
        </mxCell>
        <mxCell id="_SHLjoK1nUgN4xCROU10-39" value="no" style="text;html=1;align=center;verticalAlign=middle;whiteSpace=wrap;rounded=0;" vertex="1" parent="WIyWlLk6GJQsqaUBKTNV-1">
          <mxGeometry x="230" y="1680" width="60" height="30" as="geometry" />
        </mxCell>
        <mxCell id="_SHLjoK1nUgN4xCROU10-40" value="no" style="text;html=1;align=center;verticalAlign=middle;whiteSpace=wrap;rounded=0;" vertex="1" parent="WIyWlLk6GJQsqaUBKTNV-1">
          <mxGeometry x="280" y="940" width="60" height="30" as="geometry" />
        </mxCell>
        <mxCell id="_SHLjoK1nUgN4xCROU10-41" value="no" style="text;html=1;align=center;verticalAlign=middle;whiteSpace=wrap;rounded=0;" vertex="1" parent="WIyWlLk6GJQsqaUBKTNV-1">
          <mxGeometry x="290" y="670" width="60" height="30" as="geometry" />
        </mxCell>
        <mxCell id="_SHLjoK1nUgN4xCROU10-42" value="si" style="text;html=1;align=center;verticalAlign=middle;whiteSpace=wrap;rounded=0;" vertex="1" parent="WIyWlLk6GJQsqaUBKTNV-1">
          <mxGeometry x="220" y="760" width="60" height="30" as="geometry" />
        </mxCell>
        <mxCell id="_SHLjoK1nUgN4xCROU10-43" value="si" style="text;html=1;align=center;verticalAlign=middle;whiteSpace=wrap;rounded=0;" vertex="1" parent="WIyWlLk6GJQsqaUBKTNV-1">
          <mxGeometry x="220" y="1030" width="60" height="30" as="geometry" />
        </mxCell>
        <mxCell id="_SHLjoK1nUgN4xCROU10-44" value="si" style="text;html=1;align=center;verticalAlign=middle;whiteSpace=wrap;rounded=0;" vertex="1" parent="WIyWlLk6GJQsqaUBKTNV-1">
          <mxGeometry x="270" y="1580" width="60" height="30" as="geometry" />
        </mxCell>
      </root>
    </mxGraphModel>
  </diagram>
</mxfile>
